<svg xmlns:xlink="http://www.w3.org/1999/xlink" xmlns="http://www.w3.org/2000/svg" viewBox="0 0 24 24" fill="currentColor" width="40" height="40" data-ux="IconHamburger" class="x-el x-el-svg c2-1 c2-2 c2-17 c2-r c2-3m c2-3n c2-3o c2-3p c2-3q c2-3 c2-4 c2-5 c2-6 c2-7 c2-8"><path fill-rule="evenodd" d="M19.248 7.5H4.752A.751.751 0 0 1 4 6.75c0-.414.337-.75.752-.75h14.496a.75.75 0 1 1 0 1.5m0 5.423H4.752a.75.75 0 0 1 0-1.5h14.496a.75.75 0 1 1 0 1.5m0 5.423H4.752a.75.75 0 1 1 0-1.5h14.496a.75.75 0 1 1 0 1.5" fill="#1B1B1B"></path></svg>